<svg width="263" height="56" viewBox="0 0 263 56" fill="none" xmlns="http://www.w3.org/2000/svg">
<path d="M79.4 20.2814L73 37.7314H68.75L62.35 20.2814H66.1L70.9 34.1564L75.675 20.2814H79.4ZM83.2734 22.2314C82.6568 22.2314 82.1401 22.0398 81.7234 21.6564C81.3234 21.2564 81.1234 20.7648 81.1234 20.1814C81.1234 19.5981 81.3234 19.1148 81.7234 18.7314C82.1401 18.3314 82.6568 18.1314 83.2734 18.1314C83.8901 18.1314 84.3984 18.3314 84.7984 18.7314C85.2151 19.1148 85.4234 19.5981 85.4234 20.1814C85.4234 20.7648 85.2151 21.2564 84.7984 21.6564C84.3984 22.0398 83.8901 22.2314 83.2734 22.2314ZM84.9984 23.8814V37.7314H81.4984V23.8814H84.9984ZM93.7564 37.9564C92.6231 37.9564 91.6064 37.7564 90.7064 37.3564C89.8064 36.9398 89.0898 36.3814 88.5564 35.6814C88.0398 34.9814 87.7564 34.2064 87.7064 33.3564H91.2314C91.2981 33.8898 91.5564 34.3314 92.0064 34.6814C92.4731 35.0314 93.0481 35.2064 93.7314 35.2064C94.3981 35.2064 94.9148 35.0731 95.2814 34.8064C95.6648 34.5398 95.8564 34.1981 95.8564 33.7814C95.8564 33.3314 95.6231 32.9981 95.1564 32.7814C94.7064 32.5481 93.9814 32.2981 92.9814 32.0314C91.9481 31.7814 91.0981 31.5231 90.4314 31.2564C89.7814 30.9898 89.2148 30.5814 88.7314 30.0314C88.2648 29.4814 88.0314 28.7398 88.0314 27.8064C88.0314 27.0398 88.2481 26.3398 88.6814 25.7064C89.1314 25.0731 89.7648 24.5731 90.5814 24.2064C91.4148 23.8398 92.3898 23.6564 93.5064 23.6564C95.1564 23.6564 96.4731 24.0731 97.4564 24.9064C98.4398 25.7231 98.9814 26.8314 99.0814 28.2314H95.7314C95.6814 27.6814 95.4481 27.2481 95.0314 26.9314C94.6314 26.5981 94.0898 26.4314 93.4064 26.4314C92.7731 26.4314 92.2814 26.5481 91.9314 26.7814C91.5981 27.0148 91.4314 27.3398 91.4314 27.7564C91.4314 28.2231 91.6648 28.5814 92.1314 28.8314C92.5981 29.0648 93.3231 29.3064 94.3064 29.5564C95.3064 29.8064 96.1314 30.0648 96.7814 30.3314C97.4314 30.5981 97.9898 31.0148 98.4564 31.5814C98.9398 32.1314 99.1898 32.8648 99.2064 33.7814C99.2064 34.5814 98.9814 35.2981 98.5314 35.9314C98.0981 36.5648 97.4648 37.0648 96.6314 37.4314C95.8148 37.7814 94.8564 37.9564 93.7564 37.9564ZM115.154 23.8814V37.7314H111.629V35.9814C111.179 36.5814 110.588 37.0564 109.854 37.4064C109.138 37.7398 108.354 37.9064 107.504 37.9064C106.421 37.9064 105.463 37.6814 104.629 37.2314C103.796 36.7648 103.138 36.0898 102.654 35.2064C102.188 34.3064 101.954 33.2398 101.954 32.0064V23.8814H105.454V31.5064C105.454 32.6064 105.729 33.4564 106.279 34.0564C106.829 34.6398 107.579 34.9314 108.529 34.9314C109.496 34.9314 110.254 34.6398 110.804 34.0564C111.354 33.4564 111.629 32.6064 111.629 31.5064V23.8814H115.154ZM117.708 30.7564C117.708 29.3564 117.983 28.1148 118.533 27.0314C119.099 25.9481 119.858 25.1148 120.808 24.5314C121.774 23.9481 122.849 23.6564 124.033 23.6564C125.066 23.6564 125.966 23.8648 126.733 24.2814C127.516 24.6981 128.141 25.2231 128.608 25.8564V23.8814H132.133V37.7314H128.608V35.7064C128.158 36.3564 127.533 36.8981 126.733 37.3314C125.949 37.7481 125.041 37.9564 124.008 37.9564C122.841 37.9564 121.774 37.6564 120.808 37.0564C119.858 36.4564 119.099 35.6148 118.533 34.5314C117.983 33.4314 117.708 32.1731 117.708 30.7564ZM128.608 30.8064C128.608 29.9564 128.441 29.2314 128.108 28.6314C127.774 28.0148 127.324 27.5481 126.758 27.2314C126.191 26.8981 125.583 26.7314 124.933 26.7314C124.283 26.7314 123.683 26.8898 123.133 27.2064C122.583 27.5231 122.133 27.9898 121.783 28.6064C121.449 29.2064 121.283 29.9231 121.283 30.7564C121.283 31.5898 121.449 32.3231 121.783 32.9564C122.133 33.5731 122.583 34.0481 123.133 34.3814C123.699 34.7148 124.299 34.8814 124.933 34.8814C125.583 34.8814 126.191 34.7231 126.758 34.4064C127.324 34.0731 127.774 33.6064 128.108 33.0064C128.441 32.3898 128.608 31.6564 128.608 30.8064ZM139.051 19.2314V37.7314H135.551V19.2314H139.051ZM146.009 25.8814C146.459 25.2481 147.076 24.7231 147.859 24.3064C148.659 23.8731 149.568 23.6564 150.584 23.6564C151.768 23.6564 152.834 23.9481 153.784 24.5314C154.751 25.1148 155.509 25.9481 156.059 27.0314C156.626 28.0981 156.909 29.3398 156.909 30.7564C156.909 32.1731 156.626 33.4314 156.059 34.5314C155.509 35.6148 154.751 36.4564 153.784 37.0564C152.834 37.6564 151.768 37.9564 150.584 37.9564C149.568 37.9564 148.668 37.7481 147.884 37.3314C147.118 36.9148 146.493 36.3898 146.009 35.7564V44.3314H142.509V23.8814H146.009V25.8814ZM153.334 30.7564C153.334 29.9231 153.159 29.2064 152.809 28.6064C152.476 27.9898 152.026 27.5231 151.459 27.2064C150.909 26.8898 150.309 26.7314 149.659 26.7314C149.026 26.7314 148.426 26.8981 147.859 27.2314C147.309 27.5481 146.859 28.0148 146.509 28.6314C146.176 29.2481 146.009 29.9731 146.009 30.8064C146.009 31.6398 146.176 32.3648 146.509 32.9814C146.859 33.5981 147.309 34.0731 147.859 34.4064C148.426 34.7231 149.026 34.8814 149.659 34.8814C150.309 34.8814 150.909 34.7148 151.459 34.3814C152.026 34.0481 152.476 33.5731 152.809 32.9564C153.159 32.3398 153.334 31.6064 153.334 30.7564ZM158.553 30.7564C158.553 29.3564 158.828 28.1148 159.378 27.0314C159.944 25.9481 160.703 25.1148 161.653 24.5314C162.619 23.9481 163.694 23.6564 164.878 23.6564C165.911 23.6564 166.811 23.8648 167.578 24.2814C168.361 24.6981 168.986 25.2231 169.453 25.8564V23.8814H172.978V37.7314H169.453V35.7064C169.003 36.3564 168.378 36.8981 167.578 37.3314C166.794 37.7481 165.886 37.9564 164.853 37.9564C163.686 37.9564 162.619 37.6564 161.653 37.0564C160.703 36.4564 159.944 35.6148 159.378 34.5314C158.828 33.4314 158.553 32.1731 158.553 30.7564ZM169.453 30.8064C169.453 29.9564 169.286 29.2314 168.953 28.6314C168.619 28.0148 168.169 27.5481 167.603 27.2314C167.036 26.8981 166.428 26.7314 165.778 26.7314C165.128 26.7314 164.528 26.8898 163.978 27.2064C163.428 27.5231 162.978 27.9898 162.628 28.6064C162.294 29.2064 162.128 29.9231 162.128 30.7564C162.128 31.5898 162.294 32.3231 162.628 32.9564C162.978 33.5731 163.428 34.0481 163.978 34.3814C164.544 34.7148 165.144 34.8814 165.778 34.8814C166.428 34.8814 167.036 34.7231 167.603 34.4064C168.169 34.0731 168.619 33.6064 168.953 33.0064C169.286 32.3898 169.453 31.6564 169.453 30.8064ZM180.471 26.7564V33.4564C180.471 33.9231 180.579 34.2648 180.796 34.4814C181.029 34.6814 181.413 34.7814 181.946 34.7814H183.571V37.7314H181.371C178.421 37.7314 176.946 36.2981 176.946 33.4314V26.7564H175.296V23.8814H176.946V20.4564H180.471V23.8814H183.571V26.7564H180.471ZM193.888 23.6814C194.938 23.6814 195.872 23.9148 196.688 24.3814C197.505 24.8314 198.138 25.5064 198.588 26.4064C199.055 27.2898 199.288 28.3564 199.288 29.6064V37.7314H195.788V30.0814C195.788 28.9814 195.513 28.1398 194.963 27.5564C194.413 26.9564 193.663 26.6564 192.713 26.6564C191.747 26.6564 190.98 26.9564 190.413 27.5564C189.863 28.1398 189.588 28.9814 189.588 30.0814V37.7314H186.088V19.2314H189.588V25.6064C190.038 25.0064 190.638 24.5398 191.388 24.2064C192.138 23.8564 192.972 23.6814 193.888 23.6814ZM214.492 20.2814V23.1064H209.842V37.7314H206.342V23.1064H201.692V20.2814H214.492ZM229.92 30.5064C229.92 31.0064 229.887 31.4564 229.82 31.8564H219.695C219.779 32.8564 220.129 33.6398 220.745 34.2064C221.362 34.7731 222.12 35.0564 223.02 35.0564C224.32 35.0564 225.245 34.4981 225.795 33.3814H229.57C229.17 34.7148 228.404 35.8148 227.27 36.6814C226.137 37.5314 224.745 37.9564 223.095 37.9564C221.762 37.9564 220.562 37.6648 219.495 37.0814C218.445 36.4814 217.62 35.6398 217.02 34.5564C216.437 33.4731 216.145 32.2231 216.145 30.8064C216.145 29.3731 216.437 28.1148 217.02 27.0314C217.604 25.9481 218.42 25.1148 219.47 24.5314C220.52 23.9481 221.729 23.6564 223.095 23.6564C224.412 23.6564 225.587 23.9398 226.62 24.5064C227.67 25.0731 228.479 25.8814 229.045 26.9314C229.629 27.9648 229.92 29.1564 229.92 30.5064ZM226.295 29.5064C226.279 28.6064 225.954 27.8898 225.32 27.3564C224.687 26.8064 223.912 26.5314 222.995 26.5314C222.129 26.5314 221.395 26.7981 220.795 27.3314C220.212 27.8481 219.854 28.5731 219.72 29.5064H226.295ZM231.575 30.8064C231.575 29.3731 231.867 28.1231 232.45 27.0564C233.033 25.9731 233.842 25.1398 234.875 24.5564C235.908 23.9564 237.092 23.6564 238.425 23.6564C240.142 23.6564 241.558 24.0898 242.675 24.9564C243.808 25.8064 244.567 27.0064 244.95 28.5564H241.175C240.975 27.9564 240.633 27.4898 240.15 27.1564C239.683 26.8064 239.1 26.6314 238.4 26.6314C237.4 26.6314 236.608 26.9981 236.025 27.7314C235.442 28.4481 235.15 29.4731 235.15 30.8064C235.15 32.1231 235.442 33.1481 236.025 33.8814C236.608 34.5981 237.4 34.9564 238.4 34.9564C239.817 34.9564 240.742 34.3231 241.175 33.0564H244.95C244.567 34.5564 243.808 35.7481 242.675 36.6314C241.542 37.5148 240.125 37.9564 238.425 37.9564C237.092 37.9564 235.908 37.6648 234.875 37.0814C233.842 36.4814 233.033 35.6481 232.45 34.5814C231.867 33.4981 231.575 32.2398 231.575 30.8064ZM255.314 23.6814C256.364 23.6814 257.297 23.9148 258.114 24.3814C258.931 24.8314 259.564 25.5064 260.014 26.4064C260.481 27.2898 260.714 28.3564 260.714 29.6064V37.7314H257.214V30.0814C257.214 28.9814 256.939 28.1398 256.389 27.5564C255.839 26.9564 255.089 26.6564 254.139 26.6564C253.172 26.6564 252.406 26.9564 251.839 27.5564C251.289 28.1398 251.014 28.9814 251.014 30.0814V37.7314H247.514V19.2314H251.014V25.6064C251.464 25.0064 252.064 24.5398 252.814 24.2064C253.564 23.8564 254.397 23.6814 255.314 23.6814Z" fill="#202430"/>
<ellipse cx="27.5" cy="28" rx="27.5" ry="20" fill="#F0F5FE"/>
<ellipse cx="27.5" cy="28" rx="27.5" ry="20" transform="rotate(-90 27.5 28)" fill="#F0F5FE"/>
<circle cx="27.5" cy="27.5" r="21.5" fill="#2C79FF"/>
<path d="M19.0671 22.0746L20.6871 32.6746L26.0271 22.0746H29.6671L22.2071 36.1146H17.9271L15.4271 22.0746H19.0671ZM41.1965 22.0746L40.7365 24.7746H36.9965L34.9965 36.1146H31.5765L33.5765 24.7746H29.8565L30.3365 22.0746H41.1965Z" fill="white"/>
</svg>
