<svg width="192" height="39" viewBox="0 0 192 39" fill="none" xmlns="http://www.w3.org/2000/svg">
<path d="M59.528 14.436L54.92 27H51.86L47.252 14.436H49.952L53.408 24.426L56.846 14.436H59.528ZM62.3169 15.84C61.8729 15.84 61.5009 15.702 61.2009 15.426C60.9129 15.138 60.7689 14.784 60.7689 14.364C60.7689 13.944 60.9129 13.596 61.2009 13.32C61.5009 13.032 61.8729 12.888 62.3169 12.888C62.7609 12.888 63.1269 13.032 63.4149 13.32C63.7149 13.596 63.8649 13.944 63.8649 14.364C63.8649 14.784 63.7149 15.138 63.4149 15.426C63.1269 15.702 62.7609 15.84 62.3169 15.84ZM63.5589 17.028V27H61.0389V17.028H63.5589ZM69.8646 27.162C69.0486 27.162 68.3166 27.018 67.6686 26.73C67.0206 26.43 66.5046 26.028 66.1206 25.524C65.7486 25.02 65.5446 24.462 65.5086 23.85H68.0466C68.0946 24.234 68.2806 24.552 68.6046 24.804C68.9406 25.056 69.3546 25.182 69.8466 25.182C70.3266 25.182 70.6986 25.086 70.9626 24.894C71.2386 24.702 71.3766 24.456 71.3766 24.156C71.3766 23.832 71.2086 23.592 70.8726 23.436C70.5486 23.268 70.0266 23.088 69.3066 22.896C68.5626 22.716 67.9506 22.53 67.4706 22.338C67.0026 22.146 66.5946 21.852 66.2466 21.456C65.9106 21.06 65.7426 20.526 65.7426 19.854C65.7426 19.302 65.8986 18.798 66.2106 18.342C66.5346 17.886 66.9906 17.526 67.5786 17.262C68.1786 16.998 68.8806 16.866 69.6846 16.866C70.8726 16.866 71.8206 17.166 72.5286 17.766C73.2366 18.354 73.6266 19.152 73.6986 20.16H71.2866C71.2506 19.764 71.0826 19.452 70.7826 19.224C70.4946 18.984 70.1046 18.864 69.6126 18.864C69.1566 18.864 68.8026 18.948 68.5506 19.116C68.3106 19.284 68.1906 19.518 68.1906 19.818C68.1906 20.154 68.3586 20.412 68.6946 20.592C69.0306 20.76 69.5526 20.934 70.2606 21.114C70.9806 21.294 71.5746 21.48 72.0426 21.672C72.5106 21.864 72.9126 22.164 73.2486 22.572C73.5966 22.968 73.7766 23.496 73.7886 24.156C73.7886 24.732 73.6266 25.248 73.3026 25.704C72.9906 26.16 72.5346 26.52 71.9346 26.784C71.3466 27.036 70.6566 27.162 69.8646 27.162ZM85.2712 17.028V27H82.7332V25.74C82.4092 26.172 81.9832 26.514 81.4552 26.766C80.9392 27.006 80.3752 27.126 79.7632 27.126C78.9832 27.126 78.2932 26.964 77.6932 26.64C77.0932 26.304 76.6192 25.818 76.2712 25.182C75.9352 24.534 75.7672 23.766 75.7672 22.878V17.028H78.2872V22.518C78.2872 23.31 78.4852 23.922 78.8812 24.354C79.2772 24.774 79.8172 24.984 80.5012 24.984C81.1972 24.984 81.7432 24.774 82.1392 24.354C82.5352 23.922 82.7332 23.31 82.7332 22.518V17.028H85.2712ZM87.1096 21.978C87.1096 20.97 87.3076 20.076 87.7036 19.296C88.1116 18.516 88.6576 17.916 89.3416 17.496C90.0376 17.076 90.8116 16.866 91.6636 16.866C92.4076 16.866 93.0556 17.016 93.6076 17.316C94.1716 17.616 94.6216 17.994 94.9576 18.45V17.028H97.4956V27H94.9576V25.542C94.6336 26.01 94.1836 26.4 93.6076 26.712C93.0436 27.012 92.3896 27.162 91.6456 27.162C90.8056 27.162 90.0376 26.946 89.3416 26.514C88.6576 26.082 88.1116 25.476 87.7036 24.696C87.3076 23.904 87.1096 22.998 87.1096 21.978ZM94.9576 22.014C94.9576 21.402 94.8376 20.88 94.5976 20.448C94.3576 20.004 94.0336 19.668 93.6256 19.44C93.2176 19.2 92.7796 19.08 92.3116 19.08C91.8436 19.08 91.4116 19.194 91.0156 19.422C90.6196 19.65 90.2956 19.986 90.0436 20.43C89.8036 20.862 89.6836 21.378 89.6836 21.978C89.6836 22.578 89.8036 23.106 90.0436 23.562C90.2956 24.006 90.6196 24.348 91.0156 24.588C91.4236 24.828 91.8556 24.948 92.3116 24.948C92.7796 24.948 93.2176 24.834 93.6256 24.606C94.0336 24.366 94.3576 24.03 94.5976 23.598C94.8376 23.154 94.9576 22.626 94.9576 22.014ZM102.477 13.68V27H99.9568V13.68H102.477ZM107.487 18.468C107.811 18.012 108.255 17.634 108.819 17.334C109.395 17.022 110.049 16.866 110.781 16.866C111.633 16.866 112.401 17.076 113.085 17.496C113.781 17.916 114.327 18.516 114.723 19.296C115.131 20.064 115.335 20.958 115.335 21.978C115.335 22.998 115.131 23.904 114.723 24.696C114.327 25.476 113.781 26.082 113.085 26.514C112.401 26.946 111.633 27.162 110.781 27.162C110.049 27.162 109.401 27.012 108.837 26.712C108.285 26.412 107.835 26.034 107.487 25.578V31.752H104.967V17.028H107.487V18.468ZM112.761 21.978C112.761 21.378 112.635 20.862 112.383 20.43C112.143 19.986 111.819 19.65 111.411 19.422C111.015 19.194 110.583 19.08 110.115 19.08C109.659 19.08 109.227 19.2 108.819 19.44C108.423 19.668 108.099 20.004 107.847 20.448C107.607 20.892 107.487 21.414 107.487 22.014C107.487 22.614 107.607 23.136 107.847 23.58C108.099 24.024 108.423 24.366 108.819 24.606C109.227 24.834 109.659 24.948 110.115 24.948C110.583 24.948 111.015 24.828 111.411 24.588C111.819 24.348 112.143 24.006 112.383 23.562C112.635 23.118 112.761 22.59 112.761 21.978ZM116.518 21.978C116.518 20.97 116.716 20.076 117.112 19.296C117.52 18.516 118.066 17.916 118.75 17.496C119.446 17.076 120.22 16.866 121.072 16.866C121.816 16.866 122.464 17.016 123.016 17.316C123.58 17.616 124.03 17.994 124.366 18.45V17.028H126.904V27H124.366V25.542C124.042 26.01 123.592 26.4 123.016 26.712C122.452 27.012 121.798 27.162 121.054 27.162C120.214 27.162 119.446 26.946 118.75 26.514C118.066 26.082 117.52 25.476 117.112 24.696C116.716 23.904 116.518 22.998 116.518 21.978ZM124.366 22.014C124.366 21.402 124.246 20.88 124.006 20.448C123.766 20.004 123.442 19.668 123.034 19.44C122.626 19.2 122.188 19.08 121.72 19.08C121.252 19.08 120.82 19.194 120.424 19.422C120.028 19.65 119.704 19.986 119.452 20.43C119.212 20.862 119.092 21.378 119.092 21.978C119.092 22.578 119.212 23.106 119.452 23.562C119.704 24.006 120.028 24.348 120.424 24.588C120.832 24.828 121.264 24.948 121.72 24.948C122.188 24.948 122.626 24.834 123.034 24.606C123.442 24.366 123.766 24.03 124.006 23.598C124.246 23.154 124.366 22.626 124.366 22.014ZM132.299 19.098V23.922C132.299 24.258 132.377 24.504 132.533 24.66C132.701 24.804 132.977 24.876 133.361 24.876H134.531V27H132.947C130.823 27 129.761 25.968 129.761 23.904V19.098H128.573V17.028H129.761V14.562H132.299V17.028H134.531V19.098H132.299ZM141.96 16.884C142.716 16.884 143.388 17.052 143.976 17.388C144.564 17.712 145.02 18.198 145.344 18.846C145.68 19.482 145.848 20.25 145.848 21.15V27H143.328V21.492C143.328 20.7 143.13 20.094 142.734 19.674C142.338 19.242 141.798 19.026 141.114 19.026C140.418 19.026 139.866 19.242 139.458 19.674C139.062 20.094 138.864 20.7 138.864 21.492V27H136.344V13.68H138.864V18.27C139.188 17.838 139.62 17.502 140.16 17.262C140.7 17.01 141.3 16.884 141.96 16.884ZM156.794 14.436V16.47H153.446V27H150.926V16.47H147.578V14.436H156.794ZM167.903 21.798C167.903 22.158 167.879 22.482 167.831 22.77H160.541C160.601 23.49 160.853 24.054 161.297 24.462C161.741 24.87 162.287 25.074 162.935 25.074C163.871 25.074 164.537 24.672 164.933 23.868H167.651C167.363 24.828 166.811 25.62 165.995 26.244C165.179 26.856 164.177 27.162 162.989 27.162C162.029 27.162 161.165 26.952 160.397 26.532C159.641 26.1 159.047 25.494 158.615 24.714C158.195 23.934 157.985 23.034 157.985 22.014C157.985 20.982 158.195 20.076 158.615 19.296C159.035 18.516 159.623 17.916 160.379 17.496C161.135 17.076 162.005 16.866 162.989 16.866C163.937 16.866 164.783 17.07 165.527 17.478C166.283 17.886 166.865 18.468 167.273 19.224C167.693 19.968 167.903 20.826 167.903 21.798ZM165.293 21.078C165.281 20.43 165.047 19.914 164.591 19.53C164.135 19.134 163.577 18.936 162.917 18.936C162.293 18.936 161.765 19.128 161.333 19.512C160.913 19.884 160.655 20.406 160.559 21.078H165.293ZM169.094 22.014C169.094 20.982 169.304 20.082 169.724 19.314C170.144 18.534 170.726 17.934 171.47 17.514C172.214 17.082 173.066 16.866 174.026 16.866C175.262 16.866 176.282 17.178 177.086 17.802C177.902 18.414 178.448 19.278 178.724 20.394H176.006C175.862 19.962 175.616 19.626 175.268 19.386C174.932 19.134 174.512 19.008 174.008 19.008C173.288 19.008 172.718 19.272 172.298 19.8C171.878 20.316 171.668 21.054 171.668 22.014C171.668 22.962 171.878 23.7 172.298 24.228C172.718 24.744 173.288 25.002 174.008 25.002C175.028 25.002 175.694 24.546 176.006 23.634H178.724C178.448 24.714 177.902 25.572 177.086 26.208C176.27 26.844 175.25 27.162 174.026 27.162C173.066 27.162 172.214 26.952 171.47 26.532C170.726 26.1 170.144 25.5 169.724 24.732C169.304 23.952 169.094 23.046 169.094 22.014ZM186.186 16.884C186.942 16.884 187.614 17.052 188.202 17.388C188.79 17.712 189.246 18.198 189.57 18.846C189.906 19.482 190.074 20.25 190.074 21.15V27H187.554V21.492C187.554 20.7 187.356 20.094 186.96 19.674C186.564 19.242 186.024 19.026 185.34 19.026C184.644 19.026 184.092 19.242 183.684 19.674C183.288 20.094 183.09 20.7 183.09 21.492V27H180.57V13.68H183.09V18.27C183.414 17.838 183.846 17.502 184.386 17.262C184.926 17.01 185.526 16.884 186.186 16.884Z" fill="white"/>
<ellipse cx="19.5" cy="19.5" rx="19.5" ry="14.5" fill="#F0F5FE"/>
<ellipse cx="19.5" cy="19.5" rx="19.5" ry="14.5" transform="rotate(-90 19.5 19.5)" fill="#F0F5FE"/>
<ellipse cx="19.5" cy="19" rx="15.5" ry="15" fill="#2C79FF"/>
<path d="M14.0503 14.47L15.2653 22.42L19.2703 14.47H22.0003L16.4053 25H13.1953L11.3203 14.47H14.0503ZM30.6474 14.47L30.3024 16.495H27.4974L25.9974 25H23.4324L24.9324 16.495H22.1424L22.5024 14.47H30.6474Z" fill="white"/>
</svg>
