<svg width="25" height="25" viewBox="0 0 25 25" fill="none" xmlns="http://www.w3.org/2000/svg">
<path d="M16.3645 13.2396C17.3858 12.4361 18.1312 11.3343 18.4971 10.0875C18.8629 8.84061 18.8311 7.51072 18.406 6.28281C17.9808 5.05489 17.1835 3.99002 16.125 3.23634C15.0665 2.48265 13.7994 2.07764 12.4999 2.07764C11.2005 2.07764 9.93339 2.48265 8.87486 3.23634C7.81634 3.99002 7.01904 5.05489 6.59391 6.28281C6.16877 7.51072 6.13693 8.84061 6.50281 10.0875C6.8687 11.3343 7.61411 12.4361 8.63535 13.2396C6.88543 13.9407 5.35857 15.1035 4.21753 16.6041C3.0765 18.1047 2.36406 19.8868 2.15619 21.7604C2.14114 21.8972 2.15318 22.0357 2.19163 22.1678C2.23008 22.2999 2.29417 22.4232 2.38026 22.5306C2.55412 22.7474 2.807 22.8863 3.08327 22.9167C3.35954 22.9471 3.63656 22.8665 3.8534 22.6926C4.07024 22.5188 4.20913 22.2659 4.23952 21.9896C4.46825 19.9534 5.43919 18.0727 6.96683 16.7071C8.49447 15.3415 10.4717 14.5865 12.5208 14.5865C14.5698 14.5865 16.5471 15.3415 18.0747 16.7071C19.6023 18.0727 20.5733 19.9534 20.802 21.9896C20.8303 22.2456 20.9525 22.482 21.1448 22.6532C21.3372 22.8244 21.5862 22.9183 21.8437 22.9167H21.9583C22.2313 22.8853 22.4809 22.7472 22.6526 22.5326C22.8243 22.318 22.9042 22.0442 22.8749 21.7709C22.6661 19.8919 21.9498 18.1052 20.8029 16.6023C19.656 15.0994 18.1217 13.937 16.3645 13.2396V13.2396ZM12.4999 12.5C11.6758 12.5 10.8703 12.2557 10.1851 11.7978C9.49985 11.34 8.9658 10.6892 8.65044 9.92788C8.33507 9.16652 8.25256 8.32874 8.41333 7.52049C8.5741 6.71223 8.97094 5.9698 9.55366 5.38708C10.1364 4.80436 10.8788 4.40753 11.6871 4.24676C12.4953 4.08598 13.3331 4.1685 14.0945 4.48386C14.8558 4.79923 15.5066 5.33328 15.9644 6.01849C16.4222 6.70369 16.6666 7.50927 16.6666 8.33336C16.6666 9.43843 16.2276 10.4982 15.4462 11.2796C14.6648 12.061 13.605 12.5 12.4999 12.5Z" fill="#202430"/>
</svg>
