<svg width="25" height="25" viewBox="0 0 25 25" fill="none" xmlns="http://www.w3.org/2000/svg">
<path d="M20.7293 13.1875C20.5623 12.9974 20.4702 12.753 20.4702 12.5C20.4702 12.247 20.5623 12.0026 20.7293 11.8125L22.0627 10.3125C22.2096 10.1486 22.3008 9.94239 22.3233 9.72344C22.3457 9.50448 22.2983 9.28404 22.1877 9.09374L20.1043 5.48958C19.9949 5.29949 19.8282 5.14882 19.628 5.05904C19.4279 4.96926 19.2045 4.94495 18.9898 4.98958L17.0314 5.38541C16.7822 5.4369 16.5228 5.3954 16.3021 5.26874C16.0815 5.14209 15.9148 4.93904 15.8335 4.69791L15.1981 2.79166C15.1282 2.58476 14.9951 2.40506 14.8175 2.27795C14.6399 2.15085 14.4269 2.08276 14.2085 2.08333H10.0418C9.81469 2.07147 9.5899 2.13429 9.40181 2.26219C9.21371 2.3901 9.07266 2.57605 9.00018 2.79166L8.41684 4.69791C8.33559 4.93904 8.1689 5.14209 7.94821 5.26874C7.72752 5.3954 7.46811 5.4369 7.21893 5.38541L5.20851 4.98958C5.00492 4.96081 4.79736 4.99293 4.612 5.08191C4.42663 5.17088 4.27174 5.31273 4.16684 5.48958L2.08351 9.09374C1.97014 9.28192 1.91916 9.50112 1.93787 9.72002C1.95658 9.93891 2.04401 10.1463 2.18768 10.3125L3.51059 11.8125C3.67759 12.0026 3.76969 12.247 3.76969 12.5C3.76969 12.753 3.67759 12.9974 3.51059 13.1875L2.18768 14.6875C2.04401 14.8537 1.95658 15.0611 1.93787 15.28C1.91916 15.4989 1.97014 15.7181 2.08351 15.9062L4.16684 19.5104C4.27632 19.7005 4.44301 19.8512 4.64315 19.9409C4.84329 20.0307 5.06666 20.055 5.28143 20.0104L7.23976 19.6146C7.48894 19.5631 7.74836 19.6046 7.96904 19.7312C8.18973 19.8579 8.35643 20.0609 8.43768 20.3021L9.07309 22.2083C9.14557 22.4239 9.28663 22.6099 9.47472 22.7378C9.66282 22.8657 9.88761 22.9285 10.1148 22.9167H14.2814C14.4998 22.9172 14.7128 22.8491 14.8904 22.722C15.068 22.5949 15.2011 22.4152 15.271 22.2083L15.9064 20.3021C15.9877 20.0609 16.1544 19.8579 16.3751 19.7312C16.5957 19.6046 16.8552 19.5631 17.1043 19.6146L19.0627 20.0104C19.2774 20.055 19.5008 20.0307 19.701 19.9409C19.9011 19.8512 20.0678 19.7005 20.1773 19.5104L22.2606 15.9062C22.3712 15.7159 22.4187 15.4955 22.3962 15.2765C22.3738 15.0576 22.2825 14.8514 22.1356 14.6875L20.7293 13.1875ZM19.1773 14.5833L20.0106 15.5208L18.6773 17.8333L17.4481 17.5833C16.6979 17.43 15.9174 17.5574 15.255 17.9415C14.5925 18.3255 14.0941 18.9394 13.8543 19.6667L13.4585 20.8333H10.7918L10.4168 19.6458C10.1771 18.9186 9.6787 18.3047 9.01622 17.9206C8.35375 17.5366 7.57332 17.4091 6.82309 17.5625L5.59393 17.8125L4.23976 15.5104L5.07309 14.5729C5.58555 14 5.86886 13.2583 5.86886 12.4896C5.86886 11.7209 5.58555 10.9792 5.07309 10.4062L4.23976 9.46874L5.57309 7.17708L6.80226 7.42708C7.55249 7.58043 8.33291 7.45299 8.99539 7.06895C9.65786 6.68491 10.1563 6.07099 10.396 5.34374L10.7918 4.16666H13.4585L13.8543 5.35416C14.0941 6.08141 14.5925 6.69532 15.255 7.07937C15.9174 7.46341 16.6979 7.59085 17.4481 7.43749L18.6773 7.18749L20.0106 9.49999L19.1773 10.4375C18.6706 11.0091 18.3908 11.7465 18.3908 12.5104C18.3908 13.2743 18.6706 14.0117 19.1773 14.5833V14.5833ZM12.1252 8.33333C11.3011 8.33333 10.4955 8.5777 9.8103 9.03554C9.1251 9.49337 8.59104 10.1441 8.27568 10.9055C7.96031 11.6668 7.8778 12.5046 8.03857 13.3129C8.19934 14.1211 8.59618 14.8636 9.1789 15.4463C9.76162 16.029 10.504 16.4258 11.3123 16.5866C12.1206 16.7474 12.9583 16.6649 13.7197 16.3495C14.481 16.0341 15.1318 15.5001 15.5896 14.8149C16.0475 14.1297 16.2918 13.3241 16.2918 12.5C16.2918 11.3949 15.8529 10.3351 15.0715 9.55371C14.2901 8.77231 13.2302 8.33333 12.1252 8.33333V8.33333ZM12.1252 14.5833C11.7131 14.5833 11.3103 14.4611 10.9677 14.2322C10.6251 14.0033 10.3581 13.6779 10.2004 13.2972C10.0427 12.9166 10.0015 12.4977 10.0819 12.0936C10.1623 11.6894 10.3607 11.3182 10.652 11.0269C10.9434 10.7355 11.3146 10.5371 11.7187 10.4567C12.1229 10.3763 12.5418 10.4176 12.9224 10.5752C13.3031 10.7329 13.6285 11 13.8574 11.3426C14.0863 11.6852 14.2085 12.0879 14.2085 12.5C14.2085 13.0525 13.989 13.5824 13.5983 13.9731C13.2076 14.3638 12.6777 14.5833 12.1252 14.5833Z" fill="#202430"/>
</svg>
