<svg width="25" height="25" viewBox="0 0 25 25" fill="none" xmlns="http://www.w3.org/2000/svg">
<path d="M3.8645 16.9688C3.76543 16.8739 3.64862 16.7996 3.52075 16.75C3.26714 16.6458 2.98269 16.6458 2.72908 16.75C2.60122 16.7996 2.4844 16.8739 2.38533 16.9688C2.2905 17.0678 2.21616 17.1846 2.16658 17.3125C2.08681 17.5022 2.06502 17.7113 2.10395 17.9133C2.14288 18.1154 2.24079 18.3014 2.38533 18.4479C2.48658 18.5399 2.60285 18.6139 2.72908 18.6667C2.85377 18.7218 2.98859 18.7502 3.12492 18.7502C3.26124 18.7502 3.39606 18.7218 3.52075 18.6667C3.64698 18.6139 3.76325 18.5399 3.8645 18.4479C4.00904 18.3014 4.10695 18.1154 4.14588 17.9133C4.18481 17.7113 4.16302 17.5022 4.08325 17.3125C4.03367 17.1846 3.95933 17.0678 3.8645 16.9688V16.9688ZM7.29158 8.33333H21.8749C22.1512 8.33333 22.4161 8.22359 22.6115 8.02824C22.8068 7.83289 22.9166 7.56793 22.9166 7.29167C22.9166 7.0154 22.8068 6.75045 22.6115 6.5551C22.4161 6.35975 22.1512 6.25 21.8749 6.25H7.29158C7.01532 6.25 6.75036 6.35975 6.55501 6.5551C6.35966 6.75045 6.24992 7.0154 6.24992 7.29167C6.24992 7.56793 6.35966 7.83289 6.55501 8.02824C6.75036 8.22359 7.01532 8.33333 7.29158 8.33333ZM3.8645 11.7604C3.71802 11.6159 3.532 11.518 3.32993 11.479C3.12786 11.4401 2.91878 11.4619 2.72908 11.5417C2.60285 11.5944 2.48658 11.6684 2.38533 11.7604C2.2905 11.8595 2.21616 11.9763 2.16658 12.1042C2.11147 12.2289 2.08301 12.3637 2.08301 12.5C2.08301 12.6363 2.11147 12.7711 2.16658 12.8958C2.21934 13.0221 2.29332 13.1383 2.38533 13.2396C2.48658 13.3316 2.60285 13.4056 2.72908 13.4583C2.85377 13.5134 2.98859 13.5419 3.12492 13.5419C3.26124 13.5419 3.39606 13.5134 3.52075 13.4583C3.64698 13.4056 3.76325 13.3316 3.8645 13.2396C3.95651 13.1383 4.0305 13.0221 4.08325 12.8958C4.13836 12.7711 4.16683 12.6363 4.16683 12.5C4.16683 12.3637 4.13836 12.2289 4.08325 12.1042C4.03367 11.9763 3.95933 11.8595 3.8645 11.7604V11.7604ZM21.8749 11.4583H7.29158C7.01532 11.4583 6.75036 11.5681 6.55501 11.7634C6.35966 11.9588 6.24992 12.2237 6.24992 12.5C6.24992 12.7763 6.35966 13.0412 6.55501 13.2366C6.75036 13.4319 7.01532 13.5417 7.29158 13.5417H21.8749C22.1512 13.5417 22.4161 13.4319 22.6115 13.2366C22.8068 13.0412 22.9166 12.7763 22.9166 12.5C22.9166 12.2237 22.8068 11.9588 22.6115 11.7634C22.4161 11.5681 22.1512 11.4583 21.8749 11.4583ZM3.8645 6.55208C3.76543 6.45725 3.64862 6.38291 3.52075 6.33333C3.33105 6.25356 3.12197 6.23177 2.9199 6.2707C2.71783 6.30963 2.53182 6.40754 2.38533 6.55208C2.29332 6.65333 2.21934 6.7696 2.16658 6.89583C2.11147 7.02052 2.08301 7.15534 2.08301 7.29167C2.08301 7.42799 2.11147 7.56281 2.16658 7.6875C2.21934 7.81373 2.29332 7.93 2.38533 8.03125C2.48658 8.12326 2.60285 8.19725 2.72908 8.25C2.91878 8.32977 3.12786 8.35156 3.32993 8.31263C3.532 8.2737 3.71802 8.17579 3.8645 8.03125C3.95651 7.93 4.0305 7.81373 4.08325 7.6875C4.13836 7.56281 4.16683 7.42799 4.16683 7.29167C4.16683 7.15534 4.13836 7.02052 4.08325 6.89583C4.0305 6.7696 3.95651 6.65333 3.8645 6.55208V6.55208ZM21.8749 16.6667H7.29158C7.01532 16.6667 6.75036 16.7764 6.55501 16.9718C6.35966 17.1671 6.24992 17.4321 6.24992 17.7083C6.24992 17.9846 6.35966 18.2496 6.55501 18.4449C6.75036 18.6403 7.01532 18.75 7.29158 18.75H21.8749C22.1512 18.75 22.4161 18.6403 22.6115 18.4449C22.8068 18.2496 22.9166 17.9846 22.9166 17.7083C22.9166 17.4321 22.8068 17.1671 22.6115 16.9718C22.4161 16.7764 22.1512 16.6667 21.8749 16.6667Z" fill="#202430"/>
</svg>
