<svg width="28" height="28" viewBox="0 0 28 28" fill="none" xmlns="http://www.w3.org/2000/svg">
<path d="M6.99984 9.33329H17.4998V6.99996C17.4998 6.02774 17.1596 5.20135 16.479 4.52079C15.7984 3.84024 14.9721 3.49996 13.9998 3.49996C13.0276 3.49996 12.2012 3.84024 11.5207 4.52079C10.8401 5.20135 10.4998 6.02774 10.4998 6.99996H8.1665C8.1665 5.38607 8.73545 4.01018 9.87334 2.87229C11.0104 1.73518 12.3859 1.16663 13.9998 1.16663C15.6137 1.16663 16.9896 1.73518 18.1275 2.87229C19.2646 4.01018 19.8332 5.38607 19.8332 6.99996V9.33329H20.9998C21.6415 9.33329 22.191 9.56157 22.6483 10.0181C23.1049 10.4755 23.3332 11.025 23.3332 11.6666V23.3333C23.3332 23.975 23.1049 24.5245 22.6483 24.9818C22.191 25.4383 21.6415 25.6666 20.9998 25.6666H6.99984C6.35817 25.6666 5.80906 25.4383 5.3525 24.9818C4.89517 24.5245 4.6665 23.975 4.6665 23.3333V11.6666C4.6665 11.025 4.89517 10.4755 5.3525 10.0181C5.80906 9.56157 6.35817 9.33329 6.99984 9.33329ZM6.99984 23.3333H20.9998V11.6666H6.99984V23.3333ZM13.9998 19.8333C14.6415 19.8333 15.191 19.605 15.6483 19.1485C16.1049 18.6911 16.3332 18.1416 16.3332 17.5C16.3332 16.8583 16.1049 16.3088 15.6483 15.8515C15.191 15.3949 14.6415 15.1666 13.9998 15.1666C13.3582 15.1666 12.8091 15.3949 12.3525 15.8515C11.8952 16.3088 11.6665 16.8583 11.6665 17.5C11.6665 18.1416 11.8952 18.6911 12.3525 19.1485C12.8091 19.605 13.3582 19.8333 13.9998 19.8333ZM6.99984 23.3333V11.6666V23.3333Z" fill="black"/>
</svg>
