<svg width="28" height="28" viewBox="0 0 28 28" fill="none" xmlns="http://www.w3.org/2000/svg">
<path d="M23.3332 25.6666H20.9998V23.3333C20.9998 22.405 20.6311 21.5148 19.9747 20.8584C19.3183 20.202 18.4281 19.8333 17.4998 19.8333H10.4998C9.57158 19.8333 8.68134 20.202 8.02496 20.8584C7.36859 21.5148 6.99984 22.405 6.99984 23.3333V25.6666H4.6665V23.3333C4.6665 21.7862 5.28109 20.3025 6.37505 19.2085C7.46901 18.1145 8.95274 17.5 10.4998 17.5H17.4998C19.0469 17.5 20.5307 18.1145 21.6246 19.2085C22.7186 20.3025 23.3332 21.7862 23.3332 23.3333V25.6666ZM13.9998 15.1666C13.0806 15.1666 12.1703 14.9856 11.3211 14.6338C10.4718 14.282 9.7001 13.7664 9.05009 13.1164C8.40008 12.4664 7.88446 11.6947 7.53268 10.8454C7.1809 9.99613 6.99984 9.08588 6.99984 8.16663C6.99984 7.24737 7.1809 6.33712 7.53268 5.48784C7.88446 4.63856 8.40008 3.86689 9.05009 3.21688C9.7001 2.56687 10.4718 2.05125 11.3211 1.69947C12.1703 1.34769 13.0806 1.16663 13.9998 1.16663C15.8564 1.16663 17.6368 1.90412 18.9496 3.21688C20.2623 4.52963 20.9998 6.31011 20.9998 8.16663C20.9998 10.0231 20.2623 11.8036 18.9496 13.1164C17.6368 14.4291 15.8564 15.1666 13.9998 15.1666ZM13.9998 12.8333C15.2375 12.8333 16.4245 12.3416 17.2997 11.4665C18.1748 10.5913 18.6665 9.4043 18.6665 8.16663C18.6665 6.92895 18.1748 5.74196 17.2997 4.86679C16.4245 3.99162 15.2375 3.49996 13.9998 3.49996C12.7622 3.49996 11.5752 3.99162 10.7 4.86679C9.82484 5.74196 9.33317 6.92895 9.33317 8.16663C9.33317 9.4043 9.82484 10.5913 10.7 11.4665C11.5752 12.3416 12.7622 12.8333 13.9998 12.8333Z" fill="black"/>
</svg>
